<?xml version="1.0" encoding="utf-8"?>
<!-- Generator: Adobe Illustrator 15.1.0, SVG Export Plug-In  -->
<!DOCTYPE svg [
	<!ENTITY ns_flows "http://ns.adobe.com/Flows/1.0/">
]>
<svg version="1.2" baseProfile="tiny"
	 xmlns="http://www.w3.org/2000/svg" xmlns:xlink="http://www.w3.org/1999/xlink" xmlns:a="http://ns.adobe.com/AdobeSVGViewerExtensions/3.0/"
	 x="0px" y="0px" width="781px" height="244px" viewBox="-15.707 -5.261 781 244" xml:space="preserve">
<defs>
</defs>
<path fill="#37BA40" d="M152.926,68.313C92.554,25.15,26.88,13.562,6.241,42.43c-20.638,28.875,11.58,87.265,71.955,130.426
	c60.378,43.162,126.048,54.744,146.688,25.876C245.513,169.871,213.303,111.475,152.926,68.313z M216.693,193.192
	c-19.438,27.187-80.484,16.858-136.333-23.058C24.51,130.203-5.009,75.79,14.429,48.593c19.444-27.195,80.482-16.874,136.336,23.059
	C206.616,111.574,236.141,165.997,216.693,193.192z"/>
<path fill="#ff0000" d="M192.281,13.992C164.146-7.635,104.669,22.528,59.438,81.37C14.195,140.204,0.333,205.431,28.466,227.06
	c28.132,21.618,87.606-8.541,132.842-67.371C206.542,100.854,220.408,35.622,192.281,13.992z M158.047,157.404
	c-41.845,54.438-97.257,82.047-123.76,61.675C7.783,198.688,20.222,138.056,62.071,83.622
	c41.847-54.432,97.261-82.036,123.762-61.658C212.34,42.337,199.899,102.977,158.047,157.404z"/>
<path fill="#ff0000" d="M61.687,140.423c3.098,6.968,0.149,15.053-6.592,18.059c-6.741,2.993-14.718-0.254-17.817-7.221
	c-3.097-6.982-0.149-15.062,6.59-18.054C50.61,130.209,58.585,133.438,61.687,140.423z"/>
<path fill="#ff0000" d="M164.18,15.582c-1.007,7.568-7.757,12.914-15.063,11.935c-7.312-0.977-12.423-7.905-11.413-15.468
	c1.016-7.573,7.762-12.914,15.076-11.931C160.089,1.085,165.194,8.007,164.18,15.582z"/>
<polygon fill="#37BA40" points="118.469,196.751 125.739,200.075 128.375,196.898 120.061,193.302 "/>
<polygon fill="#37BA40" points="30.92,122.77 36.047,129.29 34.2,133.489 28.186,126.352 "/>
<path fill="#37BA40" d="M312.848,120.464c0,2.101-1.4,4.201-3.5,4.9c-6.475,2.1-38.15,2.1-46.375,1.4
	c-0.176,4.025,0.35,9.45,0.875,11.9c2.975,13.125,12.775,21.35,22.925,21.35c4.2,0,8.751-0.524,11.726-1.225
	c3.5-0.875,9.1-2.625,12.775-4.55c0.35-0.175,0.875,0.875,0.875,2.1c0,0.525-0.351,0.7-0.701,1.05
	c-4.024,2.451-12.6,6.65-20.125,8.75c-3.85,1.226-7.699,1.75-15.4,1.75c-22.05,0-38.325-10.324-38.325-36.05
	c0-23.626,17.15-46.376,42.001-46.376c23.45,0,33.25,20.125,33.25,34.826V120.464z M276.448,88.964
	c-6.825,0-13.825,10.325-13.475,34.65c9.8,0.7,19.775-0.175,22.574-1.05c1.4-0.7,2.451-1.925,2.451-5.601
	c0-9.449-2.101-28.175-11.375-28.175L276.448,88.964z"/>
<path fill="#37BA40" d="M408.576,86.864c0.351,0,0.351,0.175,0.351,0.524c0,0.7-0.351,1.925-1.051,2.101l-3.324,1.05
	c-1.226,0.351-2.275,0.7-2.801,2.45c-5.074,12.6-25.2,59.851-30.1,70.001c-1.75,2.976-2.451,3.325-12.951,3.675h-7.175
	c-0.875,0-1.399-0.175-1.75-1.05c-5.95-13.476-19.95-53.026-25.9-72.626c-0.175-1.051-0.875-1.926-1.925-2.275l-4.726-1.225
	c-0.524-0.176-0.7-0.875-0.7-2.101c0-0.35,0.176-0.524,0.525-0.524h44.801c0.525,0,0.525,0.175,0.525,0.524
	c0,0.875-0.351,1.925-0.875,2.101l-6.476,1.05c-1.226,0.351-1.575,1.05-1.226,2.45c2.451,13.475,9.801,44.801,13.826,59.15
	c0.35,1.226,1.05,3.15,1.574,5.075h0.875c0.875-2.274,1.576-4.2,2.101-5.601c5.425-16.1,11.55-41.475,14.525-58.1
	c0.351-1.75-0.175-2.451-1.575-2.801l-7.875-1.225c-0.525,0-0.7-1.4-0.7-2.275c0-0.175,0-0.35,0.524-0.35H408.576z"/>
<path fill="#37BA40" d="M484.35,120.464c0,2.101-1.4,4.201-3.5,4.9c-6.475,2.1-38.15,2.1-46.375,1.4
	c-0.176,4.025,0.35,9.45,0.875,11.9c2.975,13.125,12.775,21.35,22.926,21.35c4.199,0,8.75-0.524,11.725-1.225
	c3.5-0.875,9.1-2.625,12.775-4.55c0.35-0.175,0.875,0.875,0.875,2.1c0,0.525-0.35,0.7-0.701,1.05
	c-4.023,2.451-12.6,6.65-20.125,8.75c-3.85,1.226-7.699,1.75-15.4,1.75c-22.05,0-38.325-10.324-38.325-36.05
	c0-23.626,17.15-46.376,42.001-46.376c23.449,0,33.25,20.125,33.25,34.826V120.464z M447.95,88.964
	c-6.825,0-13.825,10.325-13.475,34.65c9.8,0.7,19.775-0.175,22.574-1.05c1.4-0.7,2.451-1.925,2.451-5.601
	c0-9.449-2.1-28.175-11.375-28.175L447.95,88.964z"/>
<path fill="#37BA40" d="M594.95,164.565c0.525,0,0.875,1.225,0.875,1.925c0,0.175,0,0.351-0.35,0.351
	c-5.951-0.176-12.076-0.351-22.225-0.351c-9.977,0-17.502,0.175-21.877,0.351c-0.35,0-0.525-0.176-0.525-0.351
	c0-0.524,0.352-1.925,0.877-1.925l8.398-1.926c1.4-0.35,1.926-1.049,2.102-2.449c0.35-3.676,0.875-17.326,0.875-25.376
	c0-15.226-2.102-32.9-11.9-32.9c-8.4,0-16.977,13.3-22.227,34.651c-1.4,6.125-2.799,17.324-2.625,23.8
	c0,1.575,0.525,2.101,1.576,2.274l8.574,1.926c0.525,0,0.875,1.225,0.875,1.925c0,0.175-0.174,0.351-0.525,0.351
	c-6.824-0.176-12.424-0.351-21.875-0.351c-9.449,0-16.1,0.175-21.35,0.351c-0.35,0-0.35-0.176-0.35-0.351
	c0-0.7,0.35-1.925,0.875-2.101l8.924-1.574c1.051-0.35,1.576-0.875,1.576-2.45c0-5.25-0.352-25.726-0.352-33.426
	c-0.174-5.95-0.699-25.55-0.875-30.101c-0.174-1.574-0.174-2.625-1.75-2.8l-7.699-0.524c-0.525,0-1.051-1.226-1.051-2.101
	c0-0.351,0-0.524,0.525-0.524l33.951-5.426c1.049-0.176,1.4,0.35,1.4,1.4c-0.176,2.449-1.051,24.675-1.4,34.125
	c0,1.75-0.176,4.025-0.35,5.95l0.875,0.175c0.523-1.75,1.225-4.025,1.574-4.9c4.9-15.574,18.201-36.75,35.352-36.75
	c14,0,21.174,13.125,21.174,37.451c0,12.949-1.225,29.225-1.924,36.575c-0.176,1.75,0.174,2.625,1.924,2.976L594.95,164.565z"/>
<path fill="#37BA40" d="M637.823,94.39c-0.875,11.199-1.049,25.199-1.049,36.575c0,22.226,5.25,30.101,17.5,30.101
	c1.574,0,3.85-0.176,5.775-0.35c1.924-0.176,5.424-1.051,9.275-2.451c0.523-0.174,0.699,0.701,0.699,1.926
	c0,0.699-0.35,1.05-0.699,1.225c-3.5,1.75-11.025,4.9-17.852,6.125c-1.924,0.176-4.549,0.35-8.4,0.35
	c-19.25,0-31.15-7-31.324-32.375c0-11.725,1.398-29.051,2.975-41.125l-15.051,0.524c-0.35,0-0.699-0.175-0.699-0.7
	s0.174-1.925,0.525-2.975c0.523-2.275,1.924-2.976,3.5-2.976h12.424c0.525-2.976,1.4-9.976,2.451-14.175
	c0.875-3.325,2.625-5.6,8.225-8.051c4.9-2.1,12.6-5.25,13.65-5.25c0.699,0,1.051,0.525,0.875,1.575
	c-0.699,5.775-2.1,19.775-2.449,26.251l30.625,0.175c0.174,0,0.35,0.175,0.35,0.524c0,1.226-0.699,2.801-1.225,2.801L637.823,94.39z
	"/>
<path fill="#37BA40" d="M676.321,112.765c0-13.476,17.852-27.301,43.227-27.301c7.699,0,13.301,0.875,15.926,2.1
	c0.523,0.525,0.875,0.875,0.875,1.575l1.574,17.851c0,0.699-1.574,1.75-2.275,1.75c-0.35,0-0.525,0-0.699-0.525
	c-2.625-4.375-5.076-8.75-7.701-13.3c-0.875-1.226-1.75-2.101-2.975-2.976c-2.275-1.399-6.301-2.449-11.199-2.449
	c-8.576,0-15.227,5.425-15.227,12.425s4.725,10.675,17.676,15.4c16.451,5.601,25.025,11.375,25.025,22.575
	c0,16.625-18.201,28-46.551,28c-3.676,0-12.25-0.699-15.75-2.1c-0.701-0.35-1.051-0.699-1.225-1.75l-1.4-18.2
	c0-0.875,1.75-1.575,2.275-1.575c0.174,0,0.523,0,0.699,0.35c2.449,4.375,5.074,9.451,7.875,13.826c0.875,1.4,1.926,2.1,3.15,2.975
	c1.926,1.225,6.65,2.625,11.025,2.625c10.5,0,18.9-4.55,18.9-12.775c0-7.525-5.076-11.199-19.25-15.925
	c-17.326-5.425-23.977-11.9-23.977-22.4V112.765z"/>
<ellipse fill="#ff0000" cx="89.336" cy="82.377" rx="11.831" ry="11.885"/>
<path fill="#37BA40" d="M125.933,90.282c0,1.465-1.188,2.653-2.653,2.653h-16.364c-1.466,0-2.653-1.188-2.653-2.653V74.251
	c0-1.466,1.188-2.654,2.653-2.654h16.364c1.465,0,2.653,1.188,2.653,2.654V90.282z"/>
<path fill="#37BA40" d="M151.583,90.282c0,1.465-1.188,2.653-2.653,2.653h-16.363c-1.466,0-2.653-1.188-2.653-2.653V74.251
	c0-1.466,1.188-2.654,2.653-2.654h16.363c1.466,0,2.653,1.188,2.653,2.654V90.282z"/>
<path fill="#37BA40" d="M125.933,115.823c0,1.465-1.188,2.652-2.653,2.652h-16.364c-1.466,0-2.653-1.188-2.653-2.652V99.791
	c0-1.466,1.188-2.653,2.653-2.653h16.364c1.465,0,2.653,1.188,2.653,2.653V115.823z"/>
<path fill="#37BA40" d="M100.171,115.823c0,1.465-1.188,2.652-2.653,2.652H81.154c-1.465,0-2.653-1.188-2.653-2.652V99.791
	c0-1.466,1.188-2.653,2.653-2.653h16.364c1.466,0,2.653,1.188,2.653,2.653V115.823z"/>
<path fill="#37BA40" d="M100.171,141.474c0,1.466-1.188,2.653-2.653,2.653H81.154c-1.465,0-2.653-1.188-2.653-2.653v-16.031
	c0-1.467,1.188-2.653,2.653-2.653h16.364c1.466,0,2.653,1.187,2.653,2.653V141.474z"/>
<path fill="#37BA40" d="M100.171,167.125c0,1.466-1.188,2.653-2.653,2.653H81.154c-1.465,0-2.653-1.188-2.653-2.653v-16.031
	c0-1.466,1.188-2.654,2.653-2.654h16.364c1.466,0,2.653,1.188,2.653,2.654V167.125z"/>
<path fill="#37BA40" d="M151.583,141.474c0,1.466-1.181,2.653-2.64,2.653h-16.28c-1.458,0-2.64-1.188-2.64-2.653v-16.031
	c0-1.467,1.182-2.653,2.64-2.653h16.28c1.459,0,2.64,1.187,2.64,2.653V141.474z"/>
<path fill="#37BA40" d="M125.877,141.474c0,1.466-1.182,2.653-2.64,2.653h-16.28c-1.459,0-2.64-1.188-2.64-2.653v-16.031
	c0-1.467,1.181-2.653,2.64-2.653h16.28c1.458,0,2.64,1.187,2.64,2.653V141.474z"/>
<path fill="#37BA40" d="M125.877,167.125c0,1.466-1.182,2.653-2.64,2.653h-16.28c-1.459,0-2.64-1.188-2.64-2.653v-16.031
	c0-1.466,1.181-2.654,2.64-2.654h16.28c1.458,0,2.64,1.188,2.64,2.654V167.125z"/>
</svg>
